<svg width="640" height="640" fill="#000000" version="1.1" viewBox="0 0 853 853" xmlns="http://www.w3.org/2000/svg" xmlns:osb="http://www.openswatchbook.org/uri/2009/osb"><path d="m0 829h24v24h-24z" fill="none"/><path d="m107 113c-43.9 0-79.9 35.9-79.9 79.9v548l160-102h559c43.9 0 79.9-35.9 79.9-79.9v-366c0-43.9-35.9-79.9-79.9-79.9zm199 94.7c39.4 0 74.9 13 107 38.9 3.88 3.74 5.82 8.81 5.82 15.2 0 3.19-.555 6.1-1.66 8.74-1.11 2.64-2.7 4.99-4.78 7.07-1.94 1.94-4.3 3.47-7.07 4.58-2.63 1.11-5.48 1.67-8.53 1.67-5.41 0-10.5-2.08-15.2-6.24-10.5-8.32-22.2-14.7-34.9-19.1-12.6-4.44-26.1-6.66-40.4-6.66-33.8 0-62.7 12-86.7 36-23.7 23.7-35.6 52.5-35.6 86.3 0 34 11.9 62.8 35.6 86.5 23.8 23.8 52.8 35.8 86.7 35.8 29 0 54.5-8.94 76.5-26.8 3.61-2.5 7.9-3.81 12.9-3.95 3.05 0 5.89.623 8.53 1.87 2.63 1.11 4.92 2.64 6.86 4.58 2.08 1.94 3.67 4.3 4.78 7.07 1.25 2.64 1.87 5.48 1.87 8.53 0 5.82-2.29 11.1-6.86 15.8-30.9 24.7-65.8 37-105 37-46 0-85.3-16.2-118-48.7-32.4-32.4-48.7-71.7-48.7-118 0-45.9 16.2-85.1 48.7-118 32.6-32.6 71.8-48.9 118-48.9zm292 0c39.4 0 74.9 13 107 38.9 3.88 3.74 5.82 8.81 5.82 15.2 0 3.19-.555 6.1-1.66 8.74-1.11 2.64-2.7 4.99-4.78 7.07-1.94 1.94-4.3 3.47-7.07 4.58-2.63 1.11-5.48 1.67-8.53 1.67-5.41 0-10.5-2.08-15.2-6.24-10.5-8.32-22.2-14.7-34.9-19.1-12.6-4.44-26.1-6.66-40.3-6.66-33.8 0-62.7 12-86.7 36-23.7 23.7-35.6 52.5-35.6 86.3 0 34 11.9 62.8 35.6 86.5 23.8 23.8 52.8 35.8 86.7 35.8 29 0 54.5-8.94 76.5-26.8 3.61-2.5 7.9-3.81 12.9-3.95 3.05 0 5.89.623 8.53 1.87 2.63 1.11 4.92 2.64 6.86 4.58 2.08 1.94 3.67 4.3 4.78 7.07 1.25 2.64 1.87 5.48 1.87 8.53 0 5.82-2.29 11.1-6.86 15.8-30.9 24.7-65.8 37-105 37-46 0-85.3-16.2-118-48.7-32.4-32.4-48.7-71.7-48.7-118 0-45.9 16.2-85.1 48.7-118 32.6-32.6 71.8-48.9 118-48.9z" stroke-width="39.9"/></svg>
